<svg xmlns="http://www.w3.org/2000/svg" xml:space="preserve" viewBox="0 0 256 256">
  <path fill="#128afa" d="M228,248H28c-11.046,0-20-8.954-20-20V28C8,16.954,16.954,8,28,8h200c11.046,0,20,8.954,20,20v200	C248,239.046,239.046,248,228,248z"/>
  <path fill="#fff" d="M206.571,180.946c4.523-1.753,8.052-4.51,10.59-8.271c2.537-3.759,3.807-8.109,3.807-13.046	c0-9.044-3.161-15.907-9.481-20.592c-5.517-4.084-13.34-6.342-23.356-6.861l44.452-44.453c0.556-0.555,0.556-1.456,0-2.011	c-0.555-0.556-1.456-0.556-2.013,0L124.974,191.308c-12.276,6.797-27.571,5.951-39.069-2.592c-0.351-0.26-0.791,0.181-0.532,0.532	c9.514,12.808,9.514,30.335,0,43.142c-0.26,0.351,0.181,0.791,0.532,0.532c12.808-9.515,30.335-9.515,43.142,0	c0.351,0.26,0.791-0.181,0.532-0.532c-8.543-11.5-9.389-26.795-2.592-39.071l21.376-21.374v60.842h39.175	c11.444-0.093,20.257-2.629,26.439-7.614c6.183-4.983,9.276-12.319,9.276-22.009c0-5.676-1.489-10.475-4.466-14.397	C215.811,184.845,211.738,182.239,206.571,180.946 M169.126,151.18l2.349-2.348h12.186c5.721,0,9.908,1.002,12.562,3.01	c2.652,2.008,3.98,5.294,3.98,9.865c0,8.164-5.238,12.343-15.712,12.526h-15.366V151.18z M198.369,212.611	c-2.745,2.331-6.565,3.495-11.454,3.495h-17.79v-27.2h19.034c9.551,0.139,14.327,4.823,14.327,14.049	C202.487,207.064,201.114,210.282,198.369,212.611"/>
</svg>
